<svg version="1" xmlns="http://www.w3.org/2000/svg" width="557.333" height="557.333" viewBox="0 0 418.000000 418.000000"><path d="M145 30.8c-6.3 1-12.1 2.1-12.7 2.5-2.6 1.7-1.1 5 5.3 11.8l6.6 7.1-.6 15.6c-.6 15.5-1 36.4-2.2 100.1-.3 17.9-1 33.5-1.4 34.7-.7 1.8-2 2.4-5.7 2.9-13.1 1.9-28.9 5.7-32.2 7.7-2.1 1.3-5.9 2.5-9 2.8-7.3.7-8.4 2.5-5.1 8.6 1.8 3.4 4.5 6.1 10.2 10.1 4.3 3 8.5 6.4 9.3 7.6 1.8 2.6 1.9 7 .3 9.7-1 1.6-1 2.6.1 5.2 5.8 14.6 6.4 20.2 3.1 29.6-1.1 3.1-3.3 7-4.9 8.6-2.8 2.8-3.2 2.9-7.9 1.9-5.5-1.1-13.7.8-19 4.3-1.5 1.1-4 2.4-5.7 3-3.7 1.3-4.7 6-1.8 8.7 1 .9 11.3 4.8 22.8 8.7 27.1 9.1 41.3 14.8 41.9 16.9.2.9.7 3.3 1.1 5.3.7 4.4 1.3 4.8 13.6 8.8 10.7 3.5 12.7 3.6 17.9 1 2.2-1.1 5-2 6.2-2 1.3 0 8.8 2.3 16.8 5.1 31.8 11.1 36.9 12.9 47.5 16.9 6.1 2.3 14.6 5.4 19 7 4.4 1.6 10.5 3.7 13.5 4.8 6.3 2.3 6.8 2.2 16.7-5.2 8.3-6.3 9.5-11.7 3.2-15.5-2.8-1.7-7.9-8.2-7.9-10.1 0-.9 16.9-13.3 22.1-16.1 2.7-1.5 3.6-1.5 8.7-.4 3.1.8 8.4 2.3 11.6 3.4 3.3 1.2 7.2 2.1 8.8 2.1 3.6 0 14.5-7.2 16-10.5 1.5-3.4.2-7.2-3.1-8.9-1.5-.8-3.5-2.6-4.4-3.9-1.6-2.4-3.9-3.6-11.4-5.6-3.5-1-4.2-1.6-4.8-4.4-.3-1.7-2.4-6.8-4.6-11.2-3.2-6.5-4-9.1-4-13.5 0-7.9.7-9.6 10.1-22.1 1-1.3 5.1-3 12.5-4.9 16.5-4.5 26.8-8 28.9-10.1 1.7-1.6 1.8-2 .4-4.1-2.4-3.7-2.9-7.3-1.3-9.4 1.7-2.2 2-6 .5-6.9-.5-.3-7.8-1.2-16.2-2-19.5-1.8-93.6-9.2-104.7-10.4-6.2-.7-8.8-1.4-9.8-2.7-2-2.7-1.6-7.8.7-9.9 2.5-2.3 2.5-3.9-.1-7.5-1.5-2-2-3.6-1.5-5.4.8-3.3 2.3-3.3 9.4.3 7.8 3.9 10.7 4.5 12.6 2.5 3.6-3.5 1.9-5.5-10-11.8-7.8-4.1-10.3-5.9-11.6-8.7-1.7-3.1-1.8-8-1.8-58.5V59.2l3.3-2.4c1.7-1.3 6.2-4.1 9.8-6.1 6.7-3.7 8.3-5.5 7.3-8.2-.7-1.7.1-1.6-34.4-6-59.9-7.6-63.4-7.9-78-5.7zm14.8 9c.4 2.4-.7 2.9-2.5 1.1-1.4-1.4-.5-4.1 1.1-3.6.6.2 1.2 1.3 1.4 2.5zm35.7.2c7.7 1 16.7 2.1 20 2.5 9.2 1 9.6 1.2 8.3 4.1-1.3 2.8-1.9 2.8-18.8 1.4-6.3-.5-14.9-1.3-19-1.6-4.1-.4-7.9-1.2-8.5-1.9-.5-.7-2.5-1.5-4.2-1.9-2.5-.4-3.3-.2-3.3.9 0 2.6-3 1.6-5-1.8-1.1-1.7-2-3.6-2-4.1 0-1.1 14.2-.1 32.5 2.4zm37.9 5.9c.3.4.3 1.1 0 1.4-.8.8-3.4-.3-3.4-1.4 0-1.1 2.7-1.2 3.4 0zm13.6.9c0 1.1-4.6 3.2-7 3.2-1.1 0-2-.5-2-1 0-.6 1.3-1 2.9-1 1.7 0 3.3-.5 3.6-1 .8-1.2 2.5-1.3 2.5-.2zm-84.3 16.9c-.4 3.8-.7 8.8-.7 11.2 0 2.4-.3 4.1-.7 3.8-.9-1-1.1-14.7-.1-15.3 1.3-.8.9-5.2-.4-5.7-.7-.3-.5-.6.6-.6 1.7-.1 1.8.5 1.3 6.6zm9.9 3c.8 11.3-.3 272.6-1.3 279.1-.4 3.3-1.2 4.6-3.3 5.7-1.5.8-3 1.2-3.3.9-.2-.3-.3-10.3-.1-22.2.2-11.9.9-71.2 1.4-131.7.6-60.5 1.3-117.1 1.6-125.8.6-14.1.9-15.7 2.4-15.7 1.6 0 1.9 1.4 2.6 9.7zm8.4-9.1c0 .3-.5 1.5-1.2 2.7-1.1 2.1-1.1 2.1-1.8.2-.4-1.1-.6-2.3-.3-2.8.5-.8 3.3-1 3.3-.1zm14.8 1.6c-.8 2.2-3.7 3.4-5.5 2.2-3.3-2.1-2.6-3.4 1.7-3.4 2.8 0 4 .4 3.8 1.2zm21.2.7c0 .4-2.7 1.4-6.1 2-4.7 1-6.4 1-7.5 0-2.7-2.2-1.3-2.9 6.1-2.9 4.1 0 7.5.4 7.5.9zm-31 2.7c0 .8-.4 1.2-1 .9-.5-.3-1-1-1-1.6 0-.5.5-.9 1-.9.6 0 1 .7 1 1.6zm48 2.3c0 3-.4 4-1.9 4.4-2.4.6-3.1 0-3.1-2.9 0-3.6 1.1-5.4 3.1-5.4 1.5 0 1.9.7 1.9 3.9zm-9.3 1.3c-.3.8-.6.5-.6-.6-.1-1.1.2-1.7.5-1.3.3.3.4 1.2.1 1.9zm-44.3 7c.6 7.6-.3 14.3-1.9 14.3-.6 0-1.1-4.8-1.3-10.8-.2-8.8 0-10.7 1.2-10.7 1.1 0 1.6 1.9 2 7.2zm13.8-3c.4 8.1-.2 16.2-1.1 17.1-.5.5-1.7.7-2.5.4-1.3-.5-1.6-2.5-1.6-10.5 0-5.4.3-10.2.7-10.5.3-.4 1.5-.7 2.5-.7 1.4 0 1.8.9 2 4.2zm10.7 3.5c0 3.2-.4 7.6-.8 9.8-.7 3.2-.9 2.1-1-5.8-.1-5.9.3-9.7.9-9.7.6 0 1 2.5.9 5.7zm28.6-.7c.3.5-.1 1-.9 1-.9 0-1.6.4-1.6 1 0 .5.7 1 1.5 1 1.3 0 1.5 5.9 1.5 47.5 0 46.1-.1 47.5-1.9 46.4-1.7-1.1-1.9-3.3-2.5-23.8-.7-25.9-.7-72.1 0-73.3.7-1.1 3.2-1 3.9.2zm-33.8 4.7c-.3 1-.5.2-.5-1.7s.2-2.7.5-1.8c.2 1 .2 2.6 0 3.5zm-14.6 5c-.9 1.5-1 1.3-1.1-1.3 0-1.7.3-3.4.8-3.8 1.1-1.2 1.4 3.2.3 5.1zm39.7 9.9c1 .3 1.2 3.2 1 12.1l-.3 11.8-14-.1c-7.7 0-18.9-.1-24.8-.2l-10.8-.2.4-12.3c.3-6.7.5-12.3.6-12.3.3-.3 46.8.8 47.9 1.2zM163 116.1c0 13.9-.4 23.8-.9 23.5-.8-.5-.8-10.2-.2-42.9.1-2.6.3-4.7.6-4.7s.5 10.8.5 24.1zm37 4.9c0 .8-9 6-10.4 6-.3 0-.3-.7 0-1.5.4-.8 1.4-1.5 2.4-1.5.9 0 2.5-.9 3.5-2 1.9-2.1 4.5-2.7 4.5-1zm4.4 6.5c-.1 1.6-.3 8.2-.5 14.5-.1 9.3-.3 10.5-.9 6.5-.9-5.9 0-30.1 1-26.5.3 1.4.5 3.8.4 5.5zm17-6.9l4.6.7v14.3c0 10.4-.3 14.4-1.2 14.8-1 .5-1 .7 0 1.2.8.4 1.2 2.9 1.2 7.2 0 4-.4 6.2-.9 5.4-.4-.7-.6-2.4-.3-3.8.3-1.7 0-2.4-1.1-2.4-1 0-1.7-1.1-1.9-2.7-.4-3.4-2.8-4.3-2.9-1.1-.1 1.7-.3 1.8-.6.5-.2-.9-.9-1.7-1.4-1.7-.5 0-.9-.5-.9-1 0-.6.7-1 1.5-1s1.5-.5 1.5-1c0-.6-2.2-1-5-1-2.7 0-5-.5-5-1 0-.6 2.3-1 5-1 3 0 5-.4 5-1.1 0-.7-1.2-1-3-.7-2 .3-3 0-3-.8s1.1-1.2 2.7-1.1c2.2.2 2.9-.3 3.1-2.1.2-1.2 1-2.2 1.8-2.2.9 0 1.4-1.1 1.4-3.3 0-1.8.5-3.8 1.2-4.5.9-.9.9-1.2 0-1.2-1.5 0-1.6-3.2 0-4.8.6-.6.9-1.5.5-1.8-1.1-1.1-7.1-.6-7.5.5-.6 1.7-1.9 1.3-2.5-.8-.8-3.3-.1-3.5 7.7-2.5zm-21.9 6.7c-.5 1.2-8.2 5.7-9.7 5.7-.5 0-.8-.5-.8-1 0-.6.4-1 1-1 .5 0 2.6-1.1 4.6-2.5 4.1-2.8 5.6-3.2 4.9-1.2zM158 129c0 .5-.2 1-.4 1-.3 0-.8-.5-1.1-1-.3-.6-.1-1 .4-1 .6 0 1.1.4 1.1 1zm57 0c0 .5-.4 1-1 1-.5 0-1-.5-1-1 0-.6.5-1 1-1 .6 0 1 .4 1 1zm4 2c0 1.6-.4 3-1 3-.5 0-1-1.4-1-3 0-1.7.5-3 1-3 .6 0 1 1.3 1 3zm-19.9 3.2c-1.3 1-3.1 1.8-4 1.8-.9 0-2.2.5-2.8 1.1-.6.6-1.7.9-2.4.7-.7-.2 1.2-1.8 4.2-3.5 5.7-3.2 8.9-3.3 5-.1zm15.2 5c-.9 1.7-2.3.7-1.9-1.5.7-3.3.7-3.3 1.5-1.2.5 1.1.7 2.3.4 2.7zm-14.3-1.3c0 1.4-7.1 5.2-8.9 4.9-1-.3.3-1.4 3.4-3 6-3.2 5.5-3 5.5-1.9zm10.5 1.1c.3.5.1 1-.4 1-.6 0-1.1-.5-1.1-1 0-.6.2-1 .4-1 .3 0 .8.4 1.1 1zm-23.5.5c0 .2-.9.9-2 1.5-1.6.9-1.8.8-1.4-.5.5-1.3 3.4-2.2 3.4-1zm13 11c0 2.6-1.4 3.3-2.5 1.4-1.2-1.9-5.6-3-7.1-1.8-.8.6-1.2 1.5-.9 1.9.3.5.1 1.1-.5 1.5-1.7 1.1-1.1 6 1.1 8.4 1.8 1.9 2.7 2.1 6 1.6 3.4-.6 3.9-.4 3.9 1.3 0 1.5-.9 2.1-3.7 2.6-8 1.3-9.1.9-9.9-2.9-.6-3.3.3-14.1 1.3-15.8.2-.4 3.1-.7 6.4-.7 5.6 0 5.9.1 5.9 2.5zm-38.4 5.7c-.9.5-1.3 1.5-.9 2.4.4 1.2.1 1.5-1.2 1.3-1-.2-1.8-.7-1.7-1.2.1-.4.2-1.9.2-3.5 0-1.9.7-3 2.3-3.7 1.9-.9 2.2-.7 2.5 1.4.2 1.4-.3 2.8-1.2 3.3zm-11.9-4.6c-.3.3-1.2.4-1.9.1-.8-.3-.5-.6.6-.6 1.1-.1 1.7.2 1.3.5zm66.3 3.7c0 1.9-1 2.7-2.6 2-1.1-.4-1.2-.9-.3-1.9 1.5-1.8 2.9-1.8 2.9-.1zm-12.6 2.1c5 1.5 13.8 6.4 27.2 15.2 4.5 2.9 12 7.4 16.8 10 4.7 2.6 8.6 5.1 8.6 5.6 0 1.1-1.8 1-2.5-.2-.3-.6-1.5-1-2.6-1s-3.7-1.1-5.7-2.5-4-2.5-4.5-2.5-2.8-1.4-5.2-3c-2.4-1.7-4.8-3-5.3-3-.4 0-1.9-1.1-3.2-2.5-1.3-1.4-2.9-2.5-3.7-2.5-.7 0-1.3-.4-1.3-.9s-1.6-1.5-3.6-2.1c-1.9-.7-3.8-1.8-4.1-2.6-.3-.8-1.3-1.4-2.3-1.4-1 0-2.3-.7-3-1.5-.6-.8-1.5-1.4-1.8-1.3-1.2.3-5.6-1.4-6.9-2.8-.8-.7-2-1.1-2.8-.8-.8.4-1.5.1-1.5-.5 0-1.5 1.7-1.4 7.4.3zm-52.9.6c.4.6-.6 1-2.2.9-2.5 0-2.6-.1-.8-.9 1.1-.5 2.1-.9 2.2-.9.1-.1.5.3.8.9zm42.5 1.6c0 .8-.4 1.2-1 .9-.5-.3-1-1.3-1-2.1s.5-1.2 1-.9c.6.3 1 1.3 1 2.1zm-38.3-1c-.3.3-1.2.4-1.9.1-.8-.3-.5-.6.6-.6 1.1-.1 1.7.2 1.3.5zm68.1 3.3c.3.8-.1 1.2-.9.9-.7-.2-1.5-1-1.7-1.7-.3-.8.1-1.2.9-.9.7.2 1.5 1 1.7 1.7zm-60 7.3c-.3 4.6-.6 5.3-2.5 5.6-2 .3-2.2-.1-2.2-5.2 0-5.3.2-5.6 2.5-5.6 2.4 0 2.5.2 2.2 5.2zm40.9-2c-.3.8-.6.5-.6-.6-.1-1.1.2-1.7.5-1.3.3.3.4 1.2.1 1.9zm-12.4 3.9c4.3-.1 9.7.1 12 .5 3.8.7 4 .8 1.7 1.5-4 1.1-19.4 1-23.1-.2-4.9-1.7-6.3-3.3-1.9-2.3 1.9.5 7 .7 11.3.5zm-36.5 7.9c-.2 4.7-.7 7.9-1.3 7.8-.5-.2-.9-1.5-.7-3.1.2-1.7-.1-2.7-.9-2.7-1 0-1-.3-.1-1.2.7-.7 1.2-2.2 1.2-3.4 0-2.4.9-5.4 1.6-5.4.3 0 .3 3.6.2 8zm53.1-2.1c1 1.7.6 1.9-4.2 2.5-2.8.3-7.7.7-10.7.8-4.9.2-5.5 0-5.5-1.7 0-1.8.9-2.1 9-2.6 5-.3 9.3-.6 9.7-.7.4-.1 1.2.6 1.7 1.7zm5.1.1c0 1.1-.4 2-.8 2s-.8-.9-.9-2c-.1-1.1.2-2 .8-2 .5 0 .9.9.9 2zm-50 15.5V208h-3c-2.3 0-3-.5-3-1.9 0-1.1.6-2.1 1.3-2.4.9-.3.8-.8-.3-2.2-1.4-1.7-1.3-1.8.7-1.3 2.4.6 4.1-.6 2.3-1.7-.6-.4-.8-1.1-.5-1.6.4-.5-.4-1.3-1.7-1.8-1.6-.7-1.8-1-.6-1 2.7-.1 3.1-2 .6-3-1.7-.7-1.9-1-.5-1 2.1-.1 2.3-3.1.2-3.1-2 0-1.9-2.6.1-3.4.8-.3 1.2-1 .9-1.6-1-1.6.5-5 2.1-5 1.1 0 1.4 2.7 1.4 15.5zm60-12.9c0 .8-.5 1.2-1 .9-.6-.4-.8-1.1-.5-1.6.9-1.4 1.5-1.1 1.5.7zm-37.5 4l4 1.4-4.4-.6c-4.8-.5-9.3-2.4-5.6-2.3 1.1 0 3.8.7 6 1.5zm48.3 2.7c.3 3.6.2 3.8-1.7 2.7-2.8-1.4-3-7.3-.3-6.8 1.2.2 1.8 1.4 2 4.1zm-34-2.6c-1 .2-2.8.2-4 0-1.3-.2-.5-.4 1.7-.4 2.2-.1 3.2.1 2.3.4zm26.2.3c0 .5-.2 1-.4 1-.3 0-.8-.5-1.1-1-.3-.6-.1-1 .4-1 .6 0 1.1.4 1.1 1zm-16.5 7c.4.6-.6 1-2.4 1-1.6 0-3.3-.5-3.6-1-.4-.6.6-1 2.4-1 1.6 0 3.3.4 3.6 1zm22 1.9c-1.1.9-10.5 2.4-10.5 1.6 0-.7 6.1-2.3 9-2.4 1.4-.1 2 .3 1.5.8zm-77.7.8c-1.6.2-4 .2-5.5 0-1.6-.2-.3-.4 2.7-.4s4.3.2 2.8.4zm57.2 1.9c-11.4 1.7-25 2.4-25 1.4 0-.6 2.4-1 5.3-1.1 2.8 0 9.7-.6 15.2-1.3 11.8-1.4 15.4-.6 4.5 1zm-62 1.4c0 .5-.7.7-1.5.4-.8-.4-1.5-.8-1.5-1 0-.2.7-.4 1.5-.4s1.5.4 1.5 1zm85 .3c-.3.3-11.4 1.7-24.8 3.2-23.7 2.7-24.4 2.7-28.2 1-3.8-1.7-5.9-4.5-2.2-3 4.5 1.9 10.5 2.1 24 .9 8.1-.8 15.1-1.5 15.6-1.7 1.6-.5 16.1-.9 15.6-.4zm-84.7 3.4c-.7.2-1.9.2-2.5 0-.7-.3-.2-.5 1.2-.5s1.9.2 1.3.5zm5.4-.1c-.3.3-1.2.4-1.9.1-.8-.3-.5-.6.6-.6 1.1-.1 1.7.2 1.3.5zM234 208v4.7c.1.5-.8.9-2 1.1-1.8.3-2-.2-2-4.1 0-4.6.5-5.7 2.7-5.7.9 0 1.3 1.3 1.3 4zm-43.7-2.3c-.7.2-1.9.2-2.5 0-.7-.3-.2-.5 1.2-.5s1.9.2 1.3.5zm-9.8 1.8c2.1.9 5 1.4 6.8 1 1.8-.3 6-.8 9.5-1.2 6-.6 6.2-.5 6.2 1.7 0 2.3-.1 2.3-9.2 1.6-12.5-1-17.1-1.9-17.6-3.4s-.2-1.5 4.3.3zm-41.3 4.9c-.3 2.7-.9 3.6-2.3 3.6-1 0-1.9-.5-1.9-1 0-.6-1.5-1-3.2-1-4.7 0-10.8-1.1-10.8-2 0-.5 6.4-1.9 16-3.4 2.4-.4 2.6.1 2.2 3.8zm23.8-.1c0 1.2-.9 2.8-2 3.5-1.6 1-2 1-2-.2 0-.7-.7-1.9-1.5-2.6-2-1.7-.9-3 2.6-3 2.3 0 2.9.4 2.9 2.3zm63-.3c0 .5-1.7 1-3.7.9-3.1 0-3.4-.2-1.8-.9 2.8-1.2 5.5-1.2 5.5 0zm-24.5 2.5c8.8.9 31.1 3.1 49.5 5s36.3 3.8 39.8 4.1c5.2.5 6 .9 5.1 2-.9 1.1-.7 1.4 1 1.4 1.2 0 2.9-.5 3.9-1.1 1.3-.8 8.2-.4 27.2 1.6 32.8 3.4 32.3 3.2 22.4 6.2-18.6 5.7-29.1 8.6-32.2 8.8-1.9.1-4.2.9-5.2 1.8-1.3 1.1-2 1.2-2.3.4-.3-.9-1-.9-2.9.2-3.3 1.7-10.8.6-10.8-1.6 0-1.2-1-1.3-5.4-.8-5.6.7-11.6-.1-11.6-1.5 0-.5 1-1.1 2.3-1.3 1.2-.3-1.5-.3-6 0-6.7.5-8.3.3-8.3-.8s-1.9-1.4-8.2-1.5c-5.3 0-8.3-.5-8.6-1.2-.2-.7-2.6-1.2-5.9-1.2-3.1 0-7.2-.4-9.2-.9-2-.6-9.9-1.9-17.6-3.1-7.7-1.1-16.2-2.7-19-3.4-2.7-.8-7.9-1.9-11.5-2.5-6.2-1-9.8-1.7-11-2-.4 0-.6-2.4-.6-5.1v-5h4.6c2.5 0 11.7.7 20.5 1.5zm-49 4.5c1.5.6.9.8-2.2.6-2.3-.1-4.5-.5-4.9-.9-1-1 4.6-.8 7.1.3zm-43.5 7.1c15.2 2.9 14.6 2.6 12.1 5.3-2.6 2.8-2.6 3.7.1 7.1 2 2.6 2 2.7.2 2.2-1-.3-3.5-.9-5.4-1.3-5.8-1.1-13.8-5.4-19-10.1-2.8-2.5-5-4.9-5-5.4 0-.9.9-.8 17 2.2zm13.3-1.4c-.7.2-1.9.2-2.5 0-.7-.3-.2-.5 1.2-.5s1.9.2 1.3.5zM136 227c3.4.8 3.4.8.5.8-1.6 0-5.2-.6-8-1.3l-5-1.4 4.5.5c2.5.3 6.1.9 8 1.4zm17.3-1.3c-.7.2-1.9.2-2.5 0-.7-.3-.2-.5 1.2-.5s1.9.2 1.3.5zm-5.6 2.9c-.3.3-1.2.4-1.9.1-.8-.3-.5-.6.6-.6 1.1-.1 1.7.2 1.3.5zm10.9.7c.3.8.6 2.6.7 4.1.1 1.5.8 3.1 1.6 3.5 1.2.8 1.3 10 .9 58-.3 31.5-.8 57.4-1.1 57.8-.4.3-2.2-.2-4.1-1.1-1.9-.9-4.3-1.6-5.5-1.6-1.2 0-3-.9-4.1-2-1.1-1.1-2.7-2-3.5-2-2.3 0-1.8-1.7.8-2.5 2.1-.8 2.1-.8-.5-1.2-2.9-.5-3.7-1.7-1.5-2.7.9-.5.9-.7-.1-1.2s-1-.9-.1-2 .8-1.5-.5-2c-1.4-.5-1.4-.9-.4-2.2 1-1.2 1-1.6.1-1.9-1.8-.6-1.6-2.3.2-2.3.8 0 1.5-.5 1.5-1 0-.6-.5-1-1.1-1-.6 0-.9-.7-.6-1.5.4-.8.1-1.7-.5-2.1-.7-.5-.5-1.1.6-2 1.6-1.1 1.6-1.3-.1-2.3-1.7-1-1.7-1 0-1.1.9 0 1.7-.5 1.7-1 0-.6-.4-1-1-1-.5 0-1-.5-1-1 0-.6.9-1 2.1-1 1.1 0 1.8-.4 1.4-1-.3-.5-1.2-.7-2-.3-1.7.6-2.1-1.2-.5-2.2.6-.4.8-1.1.5-1.6-.4-.5-.1-.9.4-.9.6 0 1.1-.5 1.1-1 0-.6-.8-1-1.7-1-1.5 0-1.5-.2-.4-.9 1.2-.8 1.2-1.2.2-2.5-1.2-1.4-1-1.6 1.3-1.6 1.5 0 3.6-.9 4.8-2l2.2-2-2.5-.2c-1.3-.1-3.1-.2-3.9-.4-.8-.1-1.9-.2-2.5-.3-.5-.1-.2-.6.9-1.2 1.5-.9 1.6-1.3.5-2.1-1.1-.7-1.1-1.1-.1-1.5 1.7-.7 1.5-2.3-.3-2.3-2.3 0-1.8-1.7.8-2.4l2.2-.7-2.2-.9c-4.1-1.7-2.5-2 6.7-1.5 5 .2 9 .1 9-.3-.1-3.2-1.5-5.2-3.6-5.2-1.3 0-2.4.4-2.4 1 0 .5.6 1 1.4 1 .8 0 1.8.4 2.1 1 .8 1.3-10.9.5-13.2-1-1.4-.9-.8-1 3.5-.7 2.8.2 5.2.1 5.2-.3 0-.9-3.6-2-6.7-2-3.2 0-2.8-1.8.5-2.3l2.7-.4-3.2-.8c-1.8-.4-3.3-1.2-3.3-1.8 0-.6 2.9-.7 8.2-.3 9.9.8 9.8-1 0-2-3.5-.4-6.5-1.1-6.8-1.5-.2-.5 2.5-.6 6.1-.2 4.1.4 6.5.2 6.5-.4 0-1.2-4.7-2.3-9.6-2.3-1.9 0-3.4-.3-3.4-.8 0-.4 3.1-.6 7-.4 4.2.2 7 0 7-.6s-.6-1.3-1.2-1.5c-.7-.3.2-.6 2-.6 3.7-.1 4-1 1.2-3.4-2.5-2.1-2.7-5.9-.3-5.5 1 .2 1.9-.4 2.1-1.5.3-1.5-.5-1.7-7-1.7-7.8 0-12.1-.8-11.3-2 .2-.4 3.6-.5 7.5-.2 6.9.5 7 .4 6.8-1.9-.4-3.3-1.5-3.9-8.1-3.9-3.9 0-5.6-.4-5.1-1.1.3-.6 2.8-.9 5.7-.7 4.1.2 5 0 5.3-1.4.3-2.5-1.5-3.6-6.6-4.1l-4.5-.4 5.3-.1c5.6-.2 6.2-.7 3.5-2.8-1.6-1.2-1.4-1.3 2-1.4 2.3 0 4 .5 4.3 1.3zm-21.6 2.6c2.4.7 2.5 1 2.2 6.6-.2 3.3-.5 6.1-.7 6.3-.1.2-3.2-.6-6.6-1.6-3.5-1.1-5.7-2.1-4.8-2.1 2.9-.2 5.2-3.8 4.6-7.1-.7-3.2.1-3.6 5.3-2.1zm71 8.6c21.2 4.1 66.9 12.6 75.4 14.1 3.1.5 3.5.9 2.2 1.6-1 .6-3.6.8-5.9.5-8.5-.8-96.6-18.9-101.7-20.8-4.5-1.6 6.4 0 30 4.6zm150.3-4.5c-4.5 1.8-12.7 4-11.8 3.1 1.1-1.1 10.2-4 12.5-4 .8 0 .5.4-.7.9zm-149.6 10.2c27.3 5.6 30 6.3 27.4 7.4-3.1 1.3-6.1 4.9-6.1 7.4 0 .8 1.1 2.7 2.5 4.2l2.5 2.8-3.2-.7c-1.8-.3-15.2-3.6-29.8-7.2l-26.5-6.6-.3-6.8c-.3-5.9-.1-6.7 1.5-6.7 1-.1 15.4 2.7 32 6.2zm-78.7.1c7.4 1.9 8.5 2.5 8.8 4.5.2 1.3-.4 3.2-1.3 4.2-1.1 1.2-1.4 2.6-1 3.9.4 1.5-.3 3.7-2.4 7.1-1.7 2.8-3.1 5.5-3.1 6 0 2-1.8.9-2.4-1.5-.5-1.9-1.3-2.5-3.4-2.5-2.1 0-3.3 1-5.4 4.3-2.2 3.3-2.8 3.8-2.8 2 0-1.2-1.4-6-3.1-10.8-2.7-7.9-2.9-8.9-1.5-10.4 1.2-1.4 1.4-2.4.6-5.2-.6-1.8-1-3.9-1-4.5 0-1.3 5.3-.5 18 2.9zm23.3-2.6c-.7.2-1.9.2-2.5 0-.7-.3-.2-.5 1.2-.5s1.9.2 1.3.5zm181.2.3c-.3.5-1.4 1-2.3.9-1.4 0-1.3-.2.3-.9 2.7-1.1 2.7-1.1 2 0zm21.4.7c1.6-.3 4.1-.9 5.6-1.3 2-.5 2.6-.4 2.1.4-.6 1-18.8 7.1-30 10.1-4.9 1.3-6.7.4-5.5-2.8.8-1.9 1.3-2.2 3.2-1.5 6.1 2.1 18.7-1.4 18.7-5.2 0-1.4.3-1.4 1.5-.4.9.7 2.7 1 4.4.7zm-100.2.9c-.3.3-1.2.4-1.9.1-.8-.3-.5-.6.6-.6 1.1-.1 1.7.2 1.3.5zm70 1.4c-5.4 2.2-15.2 3.9-10.7 1.9 3.5-1.6 11.1-3.7 13.5-3.8 1.1 0-.1.9-2.8 1.9zm-64-.4c-.3.3-1.2.4-1.9.1-.8-.3-.5-.6.6-.6 1.1-.1 1.7.2 1.3.5zm-107.4 4c.3.3.3 1.3 0 2.1s-.8 1-1.2.5c-.3-.6-2.4-1.3-4.5-1.6-5.7-.9-5.7-1.6.1-1.6 2.7 0 5.2.3 5.6.6zm106.9 6.4c5.9 1 11.7 2.4 12.9 3.1l2.3 1.2-3.6 3.2c-3.9 3.6-13.2 7.5-17.9 7.5-1.7 0-4.9-.4-7.2-.9-2.3-.6-5.5-1.3-7.2-1.6l-3-.7 3.5-1.1c4.9-1.7 6.6-5.4 4.5-10.3l-1.5-3.7 3.2.7c1.8.4 8.1 1.6 14 2.6zm65.6-1.5c-1.1 1.2-15 4.5-18 4.4l-3.3-.1 3.5-.9c1.9-.4 6.2-1.4 9.5-2.2 6.6-1.6 9.1-2 8.3-1.2zM243 259c0 .5-.4 1-1 1-.5 0-1-.5-1-1 0-.6.5-1 1-1 .6 0 1 .4 1 1zm61.3-.3c-.7.2-1.9.2-2.5 0-.7-.3-.2-.5 1.2-.5s1.9.2 1.3.5zM153 260c1 .6-.3.7-4 .3-3-.3-5.7-.7-5.9-.9-1-.9 8.5-.3 9.9.6zm24 2.9c0 .9 1.8 4.7 4 8.4 2.9 4.8 4 7.7 4 10.7 0 3.8-.2 4.1-2.2 3.4-5.6-1.6-8.8-3.4-8.8-4.8 0-2.5 1.2-4.6 2.6-4.6 1.9 0 1.8-1.9-.1-2.6-1.1-.5-1.5-2.3-1.5-7.1 0-4 .4-6.2 1-5.8.6.3 1 1.4 1 2.4zm6-.9c0 1.1-.4 2-1 2-.5 0-1-.2-1-.4s-.3-1.1-.6-2c-.4-1.1-.1-1.6 1-1.6.9 0 1.6.8 1.6 2zm12.6-.3l6.4 1.7v9.1c0 5.1-.3 9.4-.6 9.7-.3.3-1.7.3-3.2-.1-2.3-.6-2.7-1.3-3-5.2-.2-3.1-1.1-5.3-3.1-7.4-2.3-2.5-5.1-7.5-5.1-9 0-.8 2-.5 8.6 1.2zm113.7 4.9c2.2.5 2.7 1 2.2 2.2-3.5 8.4-4.5 12.9-4.5 20.1 0 8.3 1.3 12.7 5.6 19 1.8 2.6 2.4 4.9 2.4 8.7 0 2.8-.2 5.3-.5 5.6-.3.3-2.3.1-4.4-.4-3.5-.9-3.9-1.4-4.5-5-.7-4.6-3.7-10.8-6.1-12.8-2.5-2-5.8.1-8.6 5.6-1.3 2.7-2.5 5.1-2.6 5.2-.1.2-1.5.1-3.2-.3-2.8-.6-3.1-1.1-3.1-4.2 0-2.2 1.1-5.5 2.8-8.2 1.5-2.5 3.2-5.5 3.8-6.5.6-1.1 3.7-3.3 6.9-5 4.7-2.5 6.1-3.8 6.9-6.3 1.3-4.6-.5-6.3-6.4-6.3-4.1 0-4.9-.3-5.4-2.3-1.1-4.2-.6-7 1.6-8.9 1.9-1.6 3.2-1.8 8.3-1.3 3.3.3 7.3.8 8.8 1.1zM187 270c0 .5-.7.7-1.5.4-.8-.4-1.2-1-.9-1.5.6-1.1 2.4-.2 2.4 1.1zm48.5 1.6c6.1 1.4 11.1 2.7 11.3 2.9.2.2-.2 1.4-.9 2.6-1.1 2.1-.8 2.6 2.1 5.1l3.4 2.8-3.3 4.5c-1.7 2.4-4.2 6.3-5.5 8.5l-2.3 4.1-1.7-3.4c-4.4-9.4-13.6-2.4-13.6 10.2 0 4.4.3 5.3 2.3 6 3 1.1 6.9-.9 9.5-5.1l2.1-3.3-.5 9c-.6 8.5-.4 9.4 2.4 15.5 1.7 3.6 4.9 8.5 7.1 11 4.3 4.7 5.1 8.2 3.1 13.4-1.1 3.1-2.4 3.2-8.4.6l-4.6-1.9v-5.8c0-6.1-1.5-9.4-5.1-11.3-2.9-1.6-8.3 2.1-10.6 7.1-1.9 4.5-3 4.6-10.5 1.5-3.4-1.5-3.8-2-3.8-5.4 0-3.2.8-4.5 5-8.7 3.8-3.8 5.7-6.8 8-12.7 4-10.4 4-17.3-.1-29.8l-3-9.4 2.6-2c2.3-1.6 2.6-2.3 2-5.7-.5-3-.4-3.8.7-3.4.7.2 6.3 1.6 12.3 3.1zm43.4-2.2c1.4 1.6-.5 2.6-4.7 2.6h-2.7l2.5-2c3-2.3 3.4-2.4 4.9-.6zm-60.2 3.8c-.3.8-.6.5-.6-.6-.1-1.1.2-1.7.5-1.3.3.3.4 1.2.1 1.9zm99.1 0c-1.9 2.8-3.8 3.5-3.8 1.4 0-.9 1-2.1 2.3-2.6 3.1-1.2 3.1-1.2 1.5 1.2zm-30.8 4.5c0 3.1-.2 3.3-7.2 5.3-4 1.2-8.6 2.5-10.2 3.1-4.3 1.4-4.6 1.2-3.9-2.2.5-2.6.2-3.5-1.7-4.9-2.2-1.7-2.1-1.7 6.1-2.8 4.6-.6 10-1.7 11.9-2.5 4-1.8 5-1 5 4zm-71-2.7c0 .5-.7 1-1.6 1-.8 0-1.2-.5-.9-1 .3-.6 1-1 1.6-1 .5 0 .9.4.9 1zm-81.3 5.2c-.3.7-.5.2-.5-1.2s.2-1.9.5-1.3c.2.7.2 1.9 0 2.5zm-14 2.5c-.3 1-.5.2-.5-1.7s.2-2.7.5-1.8c.2 1 .2 2.6 0 3.5zm139.2-2.3c.9 1.1.5 1.5-2.4 2-4.1.8-7.7-1-5.3-2.5 2-1.3 6.4-1 7.7.5zm54.7 4.1c-.8 3.1-3.6 2.2-3.6-1.1 0-2.7 3.3-5.2 3.8-2.8.2.9.1 2.6-.2 3.9zm-195.4 2.9c1.4.8 2.3.5 4.6-1.7 1.5-1.5 3.1-2.7 3.4-2.7.3 0 .8 3 1.1 6.7.4 5.1 1.4 8.5 4.7 15 3.7 7.3 5.2 13.4 3.7 14.9-.2.3-2.5-.4-5.1-1.5-4.5-2-4.6-2.1-4.6-6.6 0-3.9-.5-5.1-3.2-7.6-1.8-1.6-4-2.9-5-2.9-1.9 0-3.8 3-4.8 7.5-.5 2.5-1 2.9-3.1 2.6-1.3-.1-3.2-.8-4.3-1.3-2.7-1.5-1.5-6.5 2.8-12.2 1.9-2.5 4.3-7.2 5.3-10.3 1.4-4.5 1.9-5.1 2.3-3.3.3 1.3 1.3 2.8 2.2 3.4zm173.5-4.8c-.9.9-31.9 13.4-33.2 13.4-.5 0 0-.9 1.1-2.1 1.1-1.1 8.6-4.2 16.5-6.8 15.2-5.1 16.6-5.5 15.6-4.5zm-76.4 2.3c.4 1.7.2 1.8-1.3.8-1-.6-1.6-1.5-1.4-1.9.9-1.4 2.2-.9 2.7 1.1zm-9 2.8c8.1 2.1 10.9 3.2 11.3 4.6.3 1 .3 2.1.1 2.4-.3.3-4.3-.6-8.9-1.9-4.6-1.4-10.5-3-13.3-3.7-5.8-1.4-6.5-1.9-4.5-3.1 2.2-1.4 3.5-1.3 15.3 1.7zm-70.4 13.5c.1 3.2-1.6 1.9-3.2-2.5-1.9-5.2-2.4-9.7-1.2-11.7.6-1 1.4.5 2.6 5.5 1 3.9 1.8 7.8 1.8 8.7zm58.4-9.1c25.5 7 24.7 6.8 24.7 9 0 2.3-4.1 2.7-5.9.5-2.5-3-15.1-6-15.1-3.6 0 1.6-2.8 0-3.3-2-.3-1.3-1.8-2-5.3-2.6-2.7-.4-6-1.5-7.3-2.5-1.3-1.1-3.7-1.9-5.2-1.9-1.6 0-2.9-.5-2.9-1 0-1.5.9-1.4 20.3 4.1zm58.7 4.6c-.1 2-4.1 5.3-6.4 5.3-3.7 0-3.2-1.6 1.2-3.9 4.1-2.2 5.2-2.5 5.2-1.4zm-109.3.9c-.3.3-1.2.4-1.9.1-.8-.3-.5-.6.6-.6 1.1-.1 1.7.2 1.3.5zm49.7 5.4c24.9 7.2 25.1 7.3 24.9 10.3-.2 3.7-5.1 13.2-8.4 16.3l-2.8 2.7-14.3-4.3c-21.4-6.4-19.8-5-19.8-17.9 0-10.5.3-12.1 2.3-12.1.6 0 8.7 2.2 18.1 5zm88.6-4c0 1.5-4 3.2-5.8 2.5-1.4-.5-1.3-.9.8-2 2.9-1.7 5-1.9 5-.5zm35 .9c0 .5-.7 1.1-1.4 1.4-1 .4-1.3.1-.9-.9.6-1.5 2.3-1.9 2.3-.5zM99.4 301c1.4.5 2.6 1.6 2.6 2.5 0 2.5-4.3 2.7-10.6.6-5.6-1.9-5.8-2-3.4-3 3.3-1.3 8.2-1.3 11.4-.1zM229 311.4c-.9.8-1.1.2-.9-2.4.4-5 1.3-6.1 1.7-2.1.2 1.8-.2 3.9-.8 4.5zm21-2.1c-.9 3.5-.8 7.3.3 8.3.4.4-.3 1.2-1.5 1.8-2.3 1.2-3.6 3.6-1.9 3.6 1.7 0 5.6 4.3 5.3 5.7-.2.7.3 1.3 1 1.3.9 0 .9.3-.2 1-1.8 1.1-6 1.3-7.6.2-.6-.4-1.4-1.7-1.8-2.9-.6-1.9-.4-2.2 1.1-1.6 1.7.6 1.7.5.1-1.4-2.3-2.6-2.3-3.5.3-5.1 2.7-1.7 1.8-2.7-1.1-1.2-3.7 2-3.3.4.5-1.8 4.1-2.5 4.7-4.7 1-3.8-3.2.8-4.7-2-2.2-3.9 1-.7 1.7-1.7 1.7-2.4 0-.6.7-1.1 1.5-1.1s1.5-.5 1.5-1.1c0-.8.4-.8 1.4 0 1 .9 1.2 2.1.6 4.4zm-146.3 2.8c33.3 10.7 33.3 10.8 33.3 13.6 0 1.8-.4 2.3-1.7 2-1-.3-3.5-.8-5.6-1.2-2.1-.3-5.2-1.4-7-2.4-1.8-1.1-4.9-2.4-7-3.1-2-.6-3.5-1.6-3.1-2.1.8-1.4-4.6-3.1-7.7-2.4-1.9.4-6.2-.5-13.1-2.9-5.7-2-11.4-3.6-12.7-3.6h-2.3l2.3-2.5c1.3-1.3 2.5-2.5 2.6-2.5.1 0 10 3.2 22 7.1zm167.6-5.9c.3 1 .7 1 1.8.1 2-1.7 5.9-.5 5.9 1.8s-2 3.5-3 1.8c-.5-.7-2.9-1.3-5.9-1.4-5.5-.1-7.4-1.1-5.1-2.5 2.1-1.4 5.8-1.2 6.3.2zm-12.2 5.3c0 .5-.9 1.1-2.1 1.3-2 .3-2.7-.8-1.3-2.2 1-.9 3.4-.3 3.4.9zM124 312.9c0 1.4-1.8 2.3-3.1 1.5-.8-.4-.7-.9.2-1.5 1.8-1.1 2.9-1.1 2.9 0zm177.9 5c.1.9-.6 1.1-2.6.6-3.8-.9-3.9-1.2-1.2-3.4 2.2-1.8 2.5-1.8 3.1-.3.4.9.7 2.3.7 3.1zm-30.9-2.2c0 1.4.2 1.5.9.5.6-1.1 1.7-1.1 5.8 0 3.6.9 4.8 1.6 3.9 2.3-1.7 1.6-13.6-1.2-12.9-3.1.7-2 2.3-1.8 2.3.3zm19.8 3.9c.6.2 1.2 1.2 1.2 2.2 0 1.9-.2 1.9-3.5.3-4.4-2.1-5.5-4.4-1.7-3.5 1.5.3 3.3.7 4 1zm42.5-.5c3.7 1 4.8 2.4 2.5 3.2-.7.2-2.3 0-3.6-.4-1.3-.5-3.5-.6-5-.3-2.1.4-2.4.3-1.2-.5 1.2-.9 1.1-1.1-.8-1.1-1.3 0-2-.4-1.7-1 .8-1.3 5-1.3 9.8.1zm-62.1 6.5l11 3.6-6.4 3.9c-8.9 5.6-10.1 5.7-13.9 1.8-3.1-3.2-5.9-8.5-5.9-11.4 0-2.3 3-1.9 15.2 2.1zm34.6-1.7c1.5.9-.7 2.6-18.8 15-5.8 4-12 8.3-13.9 9.7-5.3 3.8-7.1 3.3-7.1-2.1 0-4.9-.2-4.7 10.5-10.4 3.3-1.8 4.9-2.3 3.5-1.2-1.4 1.1-2.5 2.6-2.6 3.3 0 .7-.2 1.8-.2 2.3-.1.6-2.2 2.1-4.7 3.4-2.5 1.3-4.5 3-4.5 3.7 0 .8.2 1.4.5 1.4 1.1 0 8.5-5.3 8.5-6.1 0-.5.4-.9 1-.9 1.3 0 15.7-8.9 17.1-10.6.9-1.1.8-1.4-.4-1.4-3.2 0-2.6-2.9 1.1-4.9 4-2.1 7.9-2.6 10-1.2zM186 328.6c4.7 1.4 9.9 3.1 11.5 3.9 1.7.7 4 1.7 5.3 2 3.6 1 2.5 4.7-1.6 5.7-2 .5-3.9.5-4.5 0-.7-.5-5.2-2.2-10.2-3.7-12.2-3.8-12.3-3.8-11.7-7.4.2-1.7.9-3.1 1.6-3.1.6 0 4.9 1.1 9.6 2.6zm139.5.4c2.3.9 4 4.6 2.5 5.5-.5.3-2.2-.9-3.8-2.6-2.5-2.7-3.7-3.2-7.1-3.1-2.9.1-4.1-.2-4.1-1.2 0-1.1 1-1.1 5.1-.4 2.8.5 6.1 1.3 7.4 1.8zm19.5-1.6c0 .9-8.1 5.8-8.7 5.2-.3-.3-.4-.7-.2-.9.2-.2 1.7-1.3 3.3-2.5 2.5-1.9 5.6-2.9 5.6-1.8zm-90 6.4c0 1-3.8 4.2-5 4.2-1.7 0-1.1-2.8.8-3.9 2.1-1.2 4.2-1.4 4.2-.3zm46.1 1.9c-1.7 3-6 6.5-7.1 5.8-1.1-.7.8-3 4.9-5.7 3.2-2.2 3.4-2.2 2.2-.1zm-115.5 3.9c3.8 1.5 10.5 3.8 14.9 5.1 4.4 1.4 9.8 3.3 12 4.3 2.2.9 13.3 4.8 24.7 8.5 16.6 5.4 20.5 7 20.1 8.3-.5 1.3 0 1.4 3.1.9 3.9-.6 11.6 1.6 11.6 3.4 0 1.1-1.2 1.1-4.2 0-1.3-.4-3.6-1.1-5.1-1.5-2.6-.6-2.8-.5-2.2 1.5.6 1.9.4 2-2.7 1.4-1.8-.4-4.8-1.6-6.7-2.6-1.9-1.1-4-1.8-4.7-1.5-.8.3-2.3-.5-3.4-1.7-1.7-1.7-2.4-1.9-3.9-1-1.5.9-2.1.7-3.5-.9-.9-1-3-2.4-4.6-3-1.7-.5-2.8-1.4-2.5-1.8.3-.4-1-.4-2.8.2-2.9.9-3.8.7-7.2-1.6-4.8-3.3-8.7-4.4-9.3-2.6-.3.7-1 0-1.7-1.7-1.1-2.5-1.8-3-3.8-2.6-1.3.3-3.8-.2-5.5-1.1-3.4-1.8-6.6-2.1-5.7-.6.3.5-.7.5-2.5-.1-1.6-.6-2.8-1.4-2.5-1.8.2-.5-2.1-1.6-5.3-2.7-6.9-2.2-8.2-3.1-8.2-5.5 0-2.7 3.3-2.4 11.6.7zm71.8 2.5c-.5.9-3.4 1.3-3.4.5 0-.2.3-1.2.6-2 .5-1.3.9-1.4 2-.5.8.6 1.1 1.5.8 2zm31.2 4.4c-2.2 1.9-4.2 3.3-4.5 3-.6-.7 6-6.4 7.4-6.5.6 0-.8 1.6-2.9 3.5zm-27.6 0c0 1.4-4 3.8-4.9 2.9-.7-.7 2.1-3.4 3-2.8.5.3.9 0 .9-.5 0-.6.2-1.1.5-1.1s.5.7.5 1.5zm20.6 3c-1.9 2.9-3.8 3.9-5.8 3.2-.8-.3-.2-.9 1.4-1.5 1.5-.6 3.2-2.1 3.8-3.2.6-1.2 1.4-1.9 1.7-1.6.3.3-.2 1.7-1.1 3.1zm-47.9 2.1c-.3.3-1.2.4-1.9.1-.8-.3-.5-.6.6-.6 1.1-.1 1.7.2 1.3.5zm40.7 5.6l6.1 2.2-5.5 1.8c-7.1 2.2-9.4 2.2-15.2.1-4.7-1.7-6.3-3.3-3.3-3.3.9 0 2.6-.9 3.8-2.1 2.5-2.3 4.6-2.1 14.1 1.3zm13.6 10.6c0 1.9-7.6 6.9-8.7 5.8-.7-.7 3.6-5.1 5.7-5.9 2.2-.8 3-.8 3 .1z"/><path d="M184 40.7c.1 1 2.7 4.5 3.2 4.2.1-.1 3.3.1 7 .5 4.4.5 7.4.4 8.8-.4 1.2-.6 1.9-1.4 1.6-1.7-.5-.6-16.4-3.2-19.3-3.3-.7 0-1.3.3-1.3.7zM230.5 63c-.3.5.1 1 .9 1 .9 0 1.6-.5 1.6-1 0-.6-.4-1-.9-1-.6 0-1.3.4-1.6 1zM190.6 98.9c-4.9 2.6-9.1 5.2-9.4 5.9-.6 1.8 1.9 1.4 5.6-.8 1.8-1.1 4.2-2 5.3-2 2.7 0 12.9-4.7 12.9-6 0-.5-.6-1-1.4-1-.8 0-2-.2-2.8-.3-.7-.2-5.3 1.7-10.2 4.2zM180.3 98.4c-1.5 1.3-2.6 2.7-2.2 3 .7.7 8.9-3.4 8.9-4.5 0-1.8-3.9-.9-6.7 1.5zM209.8 100.6c-5.1 2.5-6.2 4.4-2.5 4.3 3-.1 8.1-3.2 8.5-5.2.4-2.1-.2-2-6 .9zM213 105.6c0 .8.5 1.2 1 .9.6-.3 1-1 1-1.6 0-.5-.4-.9-1-.9-.5 0-1 .7-1 1.6zM220 143c0 .5.5 1 1 1 .6 0 1-.5 1-1 0-.6-.4-1-1-1-.5 0-1 .4-1 1zM220 147c0 .5.5 1 1 1 .6 0 1-.5 1-1 0-.6-.4-1-1-1-.5 0-1 .4-1 1zM249.5 221.9c-.3.5-.1 1.2.4 1.5 1.2.8 4.1-.3 4.1-1.5s-3.7-1.2-4.5 0zM314.5 229c-2.2 1.5-2.5 2-1.2 2 2.3 0 5.7-1.8 5.7-3 0-1.5-1.2-1.2-4.5 1zM273.5 229c-.3.5.1 1 1 1s1.3-.5 1-1c-.3-.6-.8-1-1-1-.2 0-.7.4-1 1zM278.3 233.2c-2.4 1.2-3.1 2.8-1.2 2.8 2.3 0 8.9-2.3 8.9-3.2 0-1.1-5-.9-7.7.4zM300.5 234.1c-.4.6-.5 1.2-.3 1.4.7.7 4.8-.7 4.8-1.6 0-1.3-3.7-1.1-4.5.2zM289.5 237c-.3.5-1.6 1-2.7 1-1.2 0-1.9.3-1.6.6.9.8 7.8-.7 7.8-1.7 0-1.2-2.7-1.1-3.5.1zM304.5 240c-.3.5.1 1 .9 1s1.8-.5 2.1-1c.3-.6-.1-1-.9-1s-1.8.4-2.1 1zM158.7 241.6c-.8.8.1 2.4 1.4 2.4.5 0 .9-.7.9-1.5 0-1.5-1.2-2-2.3-.9zM153.8 274.2c.9.9 1.5.9 2.4 0 .9-.9.7-1.2-1.2-1.2s-2.1.3-1.2 1.2zM146.2 285.1c.5 1.7 8.8 2.6 8.8 1 0-.6-1.3-1.1-2.9-1.1-1.6 0-3.7-.3-4.7-.7-1.2-.4-1.5-.2-1.2.8zM153 290.5c0 .8.9 1 2.5.7 3.2-.6 3.2-1.7 0-1.8-1.4-.1-2.5.4-2.5 1.1zM146.5 292c-1.1 1.8-.1 2.2 6.9 2.7 7.6.5 9.1-1.1 1.9-2-2.7-.3-5.5-.8-6.4-1.2-1-.3-2-.1-2.4.5zM150 300c0 .5 1.1 1 2.5 1s2.5-.5 2.5-1c0-.6-1.1-1-2.5-1s-2.5.4-2.5 1zM145 303c0 .5 1.1 1 2.5 1s2.5-.5 2.5-1c0-.6-1.1-1-2.5-1s-2.5.4-2.5 1zM150 306.6c0 .3.8 1.3 1.7 2.2 1.1 1.2 1.8 1.3 2 .5.3-.8 1.5-1 3.5-.6 2.4.5 3 .3 2.6-.8-.4-1.3-9.8-2.5-9.8-1.3zM145 315.9c0 .5.7 1.2 1.6 1.5 2.2.9 2.4.8 2.4-.9 0-.8-.9-1.5-2-1.5s-2 .4-2 .9zM152 325c0 .5.5 1 1 1 .6 0 1-.5 1-1 0-.6-.4-1-1-1-.5 0-1 .4-1 1zM152 328c0 .5.7 1 1.5 1s1.5-.5 1.5-1c0-.6-.7-1-1.5-1s-1.5.4-1.5 1zM146.6 330.8c-.3.6-.1 1.4.5 1.7 1.5 1 2.5-.3 1.2-1.6-.7-.7-1.3-.7-1.7-.1zM147 336c0 .5 1.7 1 3.8.9 3 0 3.3-.2 1.7-.9-2.8-1.2-5.5-1.2-5.5 0zM144.7 338.6c-1.4 1.4.6 2.4 4.9 2.4 5.1 0 5.9-1.5 1.3-2.4-4-.8-5.4-.8-6.2 0zM155.5 340.1c-1 1.5.1 2.3 2 1.5.9-.3 1.3-1 1-1.6-.8-1.3-2.2-1.3-3 .1zM150 343.5c0 1 .7 1.5 1.8 1.3 2.1-.4 1.9-2.2-.2-2.6-1-.2-1.6.3-1.6 1.3zM155.2 344.1c.2.6.8 1 1.3 1s1.1-.4 1.3-1c.2-.6-.4-1.1-1.3-1.1s-1.5.5-1.3 1.1zM149.2 347.2c.5 1.5 6.8 2.4 6.8 1 0-1.2-2.4-2.2-5.2-2.2-1.1 0-1.8.5-1.6 1.2z"/></svg>